<svg width="30" height="48" viewBox="0 0 30 48" fill="none" xmlns="http://www.w3.org/2000/svg">
<path d="M25.0811 14.9713C25.0811 13.0074 24.4987 11.0876 23.4076 9.45468C22.3165 7.82175 20.7657 6.54904 18.9513 5.79748C17.1369 5.04593 15.1404 4.84929 13.2142 5.23243C11.288 5.61557 9.51871 6.56128 8.13002 7.94997C6.74133 9.33866 5.79562 11.108 5.41248 13.0341C5.02934 14.9603 5.22598 16.9568 5.97754 18.7712C6.72909 20.5857 8.0018 22.1365 9.63473 23.2276C11.2677 24.3186 13.1875 24.901 15.1514 24.901C17.7842 24.8988 20.3085 23.8519 22.1702 21.9902C24.0319 20.1285 25.0788 17.6041 25.0811 14.9713ZM12.1628 20.0282V17.9696H15.1901C15.4341 17.9693 15.668 17.8722 15.8405 17.6997C16.0131 17.5272 16.1101 17.2933 16.1104 17.0493V16.7756C16.1101 16.5316 16.0131 16.2977 15.8405 16.1252C15.668 15.9527 15.4341 15.8556 15.1901 15.8553H15.1598C14.4607 15.8549 13.784 15.6087 13.2482 15.1597C12.7123 14.7106 12.3515 14.0875 12.2288 13.3992C12.1061 12.711 12.2294 12.0015 12.577 11.3949C12.9247 10.7884 13.4746 10.3235 14.1306 10.0816V8.60663H16.1891V9.8987H18.2695V11.9573H15.1586C14.9205 11.9659 14.695 12.0666 14.5296 12.2382C14.3641 12.4097 14.2717 12.6387 14.2717 12.877C14.2717 13.1153 14.3641 13.3443 14.5296 13.5159C14.695 13.6874 14.9205 13.7881 15.1586 13.7967H15.1889C15.9787 13.7977 16.7358 14.1118 17.2943 14.6703C17.8527 15.2287 18.1669 15.9859 18.1678 16.7756V17.0493C18.167 17.6639 17.9763 18.2633 17.622 18.7655C17.2676 19.2677 16.7668 19.6482 16.1879 19.855V21.4426H14.1293V20.0282H12.1628Z" fill="url(#paint0_linear_737_331)"/>
<path d="M25.5206 32.2344C23.3204 32.1303 19.2371 32.3725 16.2436 35.0922V29.4965C19.9694 29.2146 23.4409 27.4999 25.9291 24.7125C28.4173 21.9251 29.7286 18.282 29.5876 14.5483C29.4465 10.8146 27.8641 7.28077 25.1726 4.68909C22.4812 2.09742 18.8902 0.649536 15.1538 0.649536C11.4174 0.649536 7.82638 2.09742 5.13495 4.68909C2.44351 7.28077 0.861085 10.8146 0.720024 14.5483C0.578963 18.282 1.89024 21.9251 4.37846 24.7125C6.86667 27.4999 10.3382 29.2146 14.0639 29.4965V35.0668C11.0729 32.3664 7.00418 32.1266 4.81117 32.2308C4.0892 32.2628 3.40537 32.5639 2.89437 33.0749C2.38336 33.5859 2.08221 34.2698 2.05023 34.9917C1.94367 37.2416 2.19797 41.4654 5.09937 44.4746C7.18945 46.6434 10.2398 47.772 14.1717 47.8349C14.2928 47.8349 16.4132 47.8349 16.7074 47.8192C20.3766 47.6642 23.2404 46.5416 25.2336 44.4746C28.1399 41.4654 28.3881 37.2416 28.2816 34.9917C28.249 34.2703 27.9475 33.5872 27.4366 33.0769C26.9256 32.5666 26.2421 32.2661 25.5206 32.2344ZM3.28902 14.9713C3.28902 12.6242 3.98502 10.3298 5.28901 8.37824C6.59299 6.42669 8.44639 4.90564 10.6148 4.00744C12.7833 3.10924 15.1694 2.87423 17.4714 3.33213C19.7734 3.79003 21.8879 4.92027 23.5476 6.57992C25.2072 8.23958 26.3375 10.3541 26.7954 12.6561C27.2533 14.9581 27.0183 17.3442 26.1201 19.5127C25.2219 21.6811 23.7008 23.5345 21.7493 24.8385C19.7977 26.1425 17.5033 26.8385 15.1562 26.8385C12.0098 26.8353 8.99322 25.584 6.76838 23.3591C4.54355 21.1343 3.29223 18.1177 3.28902 14.9713ZM4.22266 35.0934C4.23199 34.914 4.30746 34.7445 4.43448 34.6175C4.5615 34.4904 4.73107 34.415 4.91047 34.4056C6.80922 34.316 10.3597 34.5122 12.7816 36.8469C14.3739 38.3811 15.2664 40.642 15.4456 43.5761C14.4014 42.0657 12.9198 40.9112 11.2001 40.2678L10.4638 42.4947C10.5777 42.5347 12.8046 43.3193 13.932 45.6431C10.7399 45.5463 8.29625 44.6441 6.66633 42.9573C4.33406 40.539 4.13789 36.9922 4.22266 35.0934ZM23.6594 42.9645C22.2402 44.4358 20.1973 45.3101 17.5793 45.5729C17.6242 45.3688 17.6481 45.1606 17.6507 44.9517C17.6798 42.3506 17.2608 40.1176 16.4023 38.2721C16.724 37.7535 17.1083 37.2765 17.5466 36.8517C19.6887 34.7859 22.7149 34.3935 24.6984 34.3935C24.9551 34.3935 25.1949 34.4008 25.4128 34.4105C25.592 34.4201 25.7613 34.4957 25.8881 34.6227C26.0148 34.7497 26.0901 34.9191 26.0995 35.0983C26.1951 36.9922 25.9977 40.539 23.6643 42.9597L23.6594 42.9645Z" fill="url(#paint1_linear_737_331)"/>
<defs>
<linearGradient id="paint0_linear_737_331" x1="5.22168" y1="6.20009" x2="27.0862" y2="9.58427" gradientUnits="userSpaceOnUse">
<stop stop-color="#97BC5D"/>
<stop offset="1" stop-color="#C0D997"/>
</linearGradient>
<linearGradient id="paint1_linear_737_331" x1="0.709717" y1="3.40202" x2="32.9867" y2="6.46059" gradientUnits="userSpaceOnUse">
<stop stop-color="#97BC5D"/>
<stop offset="1" stop-color="#C0D997"/>
</linearGradient>
</defs>
</svg>
