<svg width="38" height="57" viewBox="0 0 38 57" fill="none" xmlns="http://www.w3.org/2000/svg">
<path d="M35.6298 15.1784C35.0606 14.487 34.5242 13.8343 34.2675 13.2155C33.9914 12.5507 33.9042 11.6764 33.8049 10.7524C33.6475 9.2218 33.467 7.48289 32.2924 6.31191C31.1178 5.14094 29.3862 4.95687 27.8519 4.79824C26.9268 4.70258 26.0537 4.61176 25.3877 4.33688C24.7701 4.08016 24.1162 3.5425 23.4247 2.97336C22.2138 1.97797 20.8454 0.850586 19.1102 0.850586C17.3749 0.850586 16.0041 1.97797 14.7944 2.97336C14.1029 3.5425 13.4502 4.08016 12.8314 4.33688C12.1666 4.61176 11.2923 4.70016 10.3684 4.79824C8.83777 4.95687 7.09887 5.13609 5.92789 6.3107C4.75691 7.48531 4.57285 9.21695 4.41422 10.7524C4.31855 11.6764 4.22773 12.5507 3.95285 13.2155C3.69613 13.8343 3.15848 14.487 2.58934 15.1784C1.59516 16.3893 0.467773 17.7577 0.467773 19.4942C0.467773 21.2307 1.59516 22.6002 2.58934 23.8088C3.15848 24.5002 3.69613 25.1541 3.95285 25.7717C4.22773 26.4365 4.31613 27.3108 4.41422 28.2359C4.57285 29.7666 4.75207 31.5055 5.92789 32.6764C7.10371 33.8474 8.83414 34.0303 10.3684 34.1889C11.2923 34.2846 12.1666 34.3754 12.8314 34.6515C13.4502 34.907 14.1029 35.4446 14.7944 36.0138C16.0053 37.0092 17.3749 38.1366 19.1102 38.1366C20.8454 38.1366 22.2162 37.0092 23.4247 36.0138C24.1162 35.4446 24.7701 34.907 25.3877 34.6515C26.0537 34.3754 26.9268 34.2882 27.8519 34.1889C29.3825 34.0315 31.1214 33.8511 32.2924 32.6764C33.4634 31.5018 33.6475 29.7702 33.8049 28.2359C33.9005 27.3108 33.9914 26.4377 34.2675 25.7717C34.5242 25.1541 35.0606 24.5002 35.6298 23.8088C36.6252 22.5978 37.7525 21.2295 37.7525 19.4942C37.7525 17.7589 36.6252 16.3881 35.6298 15.1784ZM33.9466 22.4234C33.3011 23.2081 32.6339 24.0195 32.2512 24.9373C31.8541 25.8964 31.7427 26.9717 31.6349 28.0107C31.5017 29.2943 31.377 30.5064 30.7485 31.1349C30.12 31.7634 28.9079 31.8881 27.6243 32.0213C26.5853 32.1291 25.51 32.2405 24.5509 32.6377C23.633 33.0179 22.8217 33.6852 22.0382 34.333C21.021 35.1698 20.062 35.9593 19.1077 35.9593C18.1535 35.9593 17.1932 35.1698 16.1773 34.333C15.3926 33.6876 14.5812 33.0204 13.6646 32.6377C12.7055 32.2405 11.6302 32.1291 10.59 32.0213C9.30641 31.8881 8.09426 31.7634 7.46578 31.1349C6.8373 30.5064 6.71258 29.2943 6.58059 28.0107C6.47281 26.9717 6.36141 25.8964 5.96301 24.9373C5.58277 24.0195 4.91555 23.2081 4.26769 22.4234C3.43699 21.4075 2.6523 20.4484 2.6523 19.4942C2.6523 18.54 3.44184 17.5797 4.27738 16.5637C4.92281 15.779 5.59004 14.9677 5.97269 14.0498C6.37109 13.092 6.4825 12.0166 6.59027 10.9764C6.72227 9.69285 6.8482 8.4807 7.47668 7.85223C8.10516 7.22375 9.31246 7.09902 10.5924 6.96098C11.6326 6.85926 12.7031 6.74785 13.6718 6.35551C14.5885 5.97527 15.3998 5.30805 16.1845 4.6602C17.2005 3.82465 18.1608 3.03391 19.115 3.03391C20.0692 3.03391 21.0283 3.82465 22.0455 4.6602C22.8289 5.30562 23.6403 5.97285 24.5582 6.35551C25.5172 6.75391 26.5925 6.86531 27.6315 6.97187C28.9151 7.10508 30.1273 7.23102 30.7557 7.85828C31.3842 8.48555 31.5089 9.69891 31.6421 10.9825C31.7499 12.0227 31.8613 13.098 32.2585 14.0559C32.6387 14.9737 33.306 15.7851 33.9538 16.5698C34.7906 17.5857 35.5801 18.546 35.5801 19.5002C35.5801 20.4545 34.7833 21.4075 33.9466 22.4234Z" fill="url(#paint0_linear_737_342)"/>
<path d="M19.3633 9.47607C17.3301 9.47583 15.3425 10.0785 13.6519 11.2079C11.9612 12.3373 10.6435 13.9427 9.86524 15.821C9.08701 17.6994 8.88327 19.7663 9.27977 21.7604C9.67628 23.7546 10.6552 25.5863 12.0928 27.0241C13.5304 28.4619 15.3621 29.441 17.3561 29.8378C19.3502 30.2345 21.4172 30.031 23.2956 29.253C25.1741 28.475 26.7796 27.1574 27.9092 25.4669C29.0388 23.7764 29.6417 21.7889 29.6417 19.7557C29.6417 17.0296 28.5588 14.4151 26.6313 12.4873C24.7037 10.5596 22.0894 9.4764 19.3633 9.47607ZM24.9081 17.6705C21.0053 19.6673 18.5011 23.8778 18.4756 23.9201C18.3762 24.0896 18.2388 24.2336 18.0743 24.341C17.9098 24.4484 17.7226 24.5161 17.5275 24.5389C17.4785 24.5447 17.4291 24.5476 17.3797 24.5474C17.2082 24.5474 17.0384 24.5126 16.8806 24.4452C16.7229 24.3777 16.5804 24.2791 16.4619 24.1551L13.6246 21.1919C13.5092 21.071 13.4187 20.9286 13.3583 20.7728C13.2978 20.6169 13.2687 20.4507 13.2725 20.2836C13.2764 20.1165 13.3131 19.9518 13.3805 19.7989C13.448 19.646 13.5449 19.5079 13.6658 19.3924C13.7867 19.277 13.9291 19.1865 14.0849 19.1261C14.2407 19.0657 14.407 19.0365 14.5741 19.0403C14.7411 19.0442 14.9059 19.0809 15.0588 19.1483C15.2117 19.2158 15.3498 19.3128 15.4653 19.4336L17.2114 21.2573C18.3981 19.6395 20.6735 16.9827 23.7505 15.406C23.8992 15.3299 24.0614 15.2839 24.2279 15.2705C24.3944 15.2571 24.5619 15.2766 24.7208 15.3279C24.8797 15.3793 25.027 15.4614 25.1542 15.5696C25.2814 15.6779 25.3861 15.8101 25.4621 15.9588C25.5382 16.1075 25.5843 16.2697 25.5977 16.4362C25.6111 16.6027 25.5916 16.7702 25.5402 16.9291C25.4889 17.0881 25.4068 17.2354 25.2985 17.3626C25.1903 17.4898 25.058 17.5944 24.9094 17.6705H24.9081Z" fill="url(#paint1_linear_737_342)"/>
<path d="M29.5024 40.4519C27.2513 40.3441 23.0287 40.5984 20.0195 43.4998C19.7075 43.8028 19.4162 44.1264 19.1477 44.4686C18.8792 44.1264 18.5879 43.8028 18.2758 43.4998C15.2666 40.5936 11.0429 40.3441 8.79294 40.4519C8.07088 40.4836 7.3869 40.7847 6.87583 41.2957C6.36477 41.8068 6.06371 42.4908 6.032 43.2128C5.92544 45.4616 6.17853 49.6853 9.07993 52.6945C11.1724 54.8645 14.224 55.9943 18.162 56.0548C18.2758 56.0548 20.43 56.0548 20.7388 56.0379C24.385 55.8744 27.2331 54.7531 29.2154 52.6945C32.1217 49.6853 32.3711 45.4616 32.2645 43.2128C32.2328 42.4906 31.9316 41.8064 31.4203 41.2953C30.909 40.7843 30.2247 40.4833 29.5024 40.4519ZM15.5439 48.9805L14.8706 51.0149C14.9748 51.0512 16.9958 51.7633 18.0263 53.8715C14.7774 53.7928 12.295 52.8895 10.6493 51.182C8.31583 48.7602 8.11845 45.2145 8.20927 43.3109C8.21728 43.1312 8.29236 42.961 8.41968 42.8339C8.54701 42.7068 8.71734 42.632 8.89708 42.6243C10.7946 42.5335 14.3463 42.7309 16.7682 45.0644C18.4029 46.6386 19.299 48.9818 19.4419 52.0309C18.4876 50.6371 17.1263 49.5718 15.5439 48.9805ZM27.6448 51.1784C26.2268 52.6509 24.184 53.524 21.5647 53.7868C21.6105 53.5832 21.6349 53.3754 21.6374 53.1668C21.6652 50.5645 21.2462 48.3315 20.3877 46.4872C20.7098 45.9685 21.0941 45.4911 21.532 45.0656C23.6754 42.9997 26.7003 42.6086 28.6838 42.6086C28.9405 42.6086 29.1803 42.6086 29.3983 42.6255C29.578 42.6332 29.7483 42.708 29.8757 42.8351C30.003 42.9622 30.0781 43.1324 30.0861 43.3121C30.1757 45.2145 29.9795 48.7614 27.6448 51.182V51.1784Z" fill="url(#paint2_linear_737_342)"/>
<defs>
<linearGradient id="paint0_linear_737_342" x1="0.467774" y1="3.0256" x2="41.5171" y2="9.37899" gradientUnits="userSpaceOnUse">
<stop stop-color="#97BC5D"/>
<stop offset="1" stop-color="#C0D997"/>
</linearGradient>
<linearGradient id="paint1_linear_737_342" x1="9.0824" y1="10.6754" x2="31.7175" y2="14.1788" gradientUnits="userSpaceOnUse">
<stop stop-color="#97BC5D"/>
<stop offset="1" stop-color="#C0D997"/>
</linearGradient>
<linearGradient id="paint2_linear_737_342" x1="6.01294" y1="41.3437" x2="33.75" y2="48.563" gradientUnits="userSpaceOnUse">
<stop stop-color="#97BC5D"/>
<stop offset="1" stop-color="#C0D997"/>
</linearGradient>
</defs>
</svg>
