<svg width="40" height="40" viewBox="0 0 40 40" fill="none" xmlns="http://www.w3.org/2000/svg">
<g clip-path="url(#clip0_737_382)">
<path d="M4.78455 31.2169H13.0839M36.5986 14.3916H3.40133H36.5986ZM36.5986 14.3916C38.1265 14.3916 39.365 13.136 39.365 11.5873V5.97885C39.365 4.43013 38.1265 3.17462 36.5986 3.17462H3.40133C1.87346 3.17462 0.634888 4.43013 0.634888 5.97885V11.5873C0.634888 13.136 1.87347 14.3916 3.40133 14.3916H36.5986ZM36.5986 14.3916C38.1265 14.3916 39.365 15.6471 39.365 17.1958V22.8043C39.365 24.353 38.1265 25.6085 36.5986 25.6085V14.3916ZM3.40133 14.3916C1.87347 14.3916 0.634888 15.6471 0.634888 17.1958V22.8043C0.634888 24.353 1.87347 25.6085 3.40133 25.6085V14.3916ZM36.5986 25.6085H3.40133H36.5986ZM36.5986 25.6085C38.1265 25.6085 39.365 26.864 39.365 28.4127V34.0212C39.365 35.57 38.1265 36.8254 36.5986 36.8254H3.40133C1.87347 36.8254 0.634888 35.57 0.634888 34.0212V28.4127C0.634888 26.864 1.87347 25.6085 3.40133 25.6085H36.5986ZM4.78455 8.78309H13.0839H4.78455ZM4.78455 20H13.0839H4.78455Z" stroke="url(#paint0_linear_737_382)" stroke-width="3"/>
</g>
<defs>
<linearGradient id="paint0_linear_737_382" x1="0.634888" y1="5.13758" x2="42.954" y2="12.6764" gradientUnits="userSpaceOnUse">
<stop stop-color="#97BC5D"/>
<stop offset="1" stop-color="#C0D997"/>
</linearGradient>
<clipPath id="clip0_737_382">
<rect width="40" height="40" fill="white"/>
</clipPath>
</defs>
</svg>
