<svg width="41" height="47" viewBox="0 0 41 47" fill="none" xmlns="http://www.w3.org/2000/svg">
<path d="M17.0868 11.8071H18.087C19.0748 11.8058 20.0218 11.4128 20.7203 10.7143C21.4188 10.0158 21.8118 9.06883 21.8131 8.08102V8.03984H19.6334V8.08102C19.6327 8.49094 19.4696 8.88389 19.1797 9.17375C18.8899 9.46362 18.4969 9.62674 18.087 9.62738H17.0868C16.6768 9.62674 16.2839 9.46362 15.994 9.17375C15.7042 8.88389 15.541 8.49094 15.5404 8.08102V4.23266C15.5414 3.82294 15.7046 3.4303 15.9945 3.1407C16.2843 2.8511 16.6771 2.68814 17.0868 2.6875H18.087C18.4969 2.68814 18.8899 2.85127 19.1797 3.14113C19.4696 3.43099 19.6327 3.82394 19.6334 4.23387H21.8131C21.8118 3.24605 21.4188 2.29906 20.7203 1.60056C20.0218 0.902071 19.0748 0.509094 18.087 0.507812H17.0868C16.0989 0.508774 15.1517 0.901648 14.4531 1.60021C13.7546 2.29877 13.3617 3.24595 13.3607 4.23387V8.08223C13.362 9.06993 13.755 10.0168 14.4535 10.7151C15.1521 11.4134 16.0991 11.8061 17.0868 11.8071Z" fill="url(#paint0_linear_737_299)"/>
<path d="M27.3265 11.8071C28.4469 11.8058 29.5211 11.3601 30.3134 10.5678C31.1057 9.77555 31.5513 8.70135 31.5526 7.58089V4.73276C31.5526 4.17778 31.4433 3.62822 31.2309 3.11548C31.0185 2.60274 30.7072 2.13685 30.3148 1.74441C29.9224 1.35197 29.4565 1.04068 28.9437 0.82829C28.431 0.615905 27.8814 0.506592 27.3265 0.506592C26.7715 0.506592 26.2219 0.615905 25.7092 0.82829C25.1964 1.04068 24.7305 1.35197 24.3381 1.74441C23.9457 2.13685 23.6344 2.60274 23.422 3.11548C23.2096 3.62822 23.1003 4.17778 23.1003 4.73276V7.58089C23.1012 8.70144 23.5468 9.77583 24.3392 10.5682C25.1315 11.3605 26.2059 11.8061 27.3265 11.8071ZM25.28 4.73276C25.28 4.19 25.4956 3.66947 25.8794 3.28568C26.2632 2.90189 26.7837 2.68628 27.3265 2.68628C27.8692 2.68628 28.3897 2.90189 28.7735 3.28568C29.1573 3.66947 29.3729 4.19 29.3729 4.73276V7.58089C29.3729 8.12365 29.1573 8.64418 28.7735 9.02797C28.3897 9.41176 27.8692 9.62737 27.3265 9.62737C26.7837 9.62737 26.2632 9.41176 25.8794 9.02797C25.4956 8.64418 25.28 8.12365 25.28 7.58089V4.73276Z" fill="url(#paint1_linear_737_299)"/>
<path d="M36.9329 11.7998L34.8585 12.4586C34.2957 12.6374 33.8153 13.0117 33.5042 13.5137C33.1931 14.0158 33.0718 14.6125 33.1621 15.1961C33.2525 15.7798 33.5486 16.3119 33.9969 16.6964C34.4452 17.0808 35.0163 17.2923 35.6069 17.2926H38.9248V15.1129H35.6069C35.5368 15.1122 35.4693 15.0866 35.4163 15.0407C35.3634 14.9948 35.3285 14.9315 35.3179 14.8623C35.3073 14.793 35.3216 14.7222 35.3584 14.6626C35.3951 14.6029 35.4518 14.5582 35.5185 14.5365L37.5928 13.8778C38.1255 13.71 38.5907 13.3765 38.9205 12.9258C39.2503 12.4751 39.4274 11.9308 39.4262 11.3723V11.1144C39.4252 10.4173 39.1478 9.74896 38.6547 9.25611C38.1616 8.76326 37.4932 8.48611 36.796 8.48547H35.7619C35.0649 8.48643 34.3968 8.76372 33.904 9.25654C33.4112 9.74935 33.1339 10.4175 33.1329 11.1144V11.4329H35.3126V11.1144C35.3129 10.9954 35.3604 10.8813 35.4446 10.7971C35.5287 10.7129 35.6428 10.6655 35.7619 10.6652H36.796C36.9153 10.6652 37.0297 10.7125 37.1141 10.7967C37.1986 10.8809 37.2462 10.9952 37.2465 11.1144V11.3723C37.2467 11.4677 37.2164 11.5607 37.1599 11.6376C37.1035 11.7145 37.0239 11.7714 36.9329 11.7998Z" fill="url(#paint2_linear_737_299)"/>
<path d="M20.5089 16.8724C22.324 16.8785 24.0886 17.4701 25.5407 18.5591C26.9927 19.6482 28.0547 21.1766 28.5689 22.9174C28.7574 23.5724 29.1556 24.1475 29.7025 24.5544C30.2493 24.9613 30.9146 25.1775 31.5962 25.1697H31.6132C32.4666 25.1699 33.3115 25.34 34.0986 25.6701C34.8856 26.0002 35.5991 26.4836 36.1973 27.0923C36.7956 27.7009 37.2667 28.4226 37.5832 29.2152C37.8998 30.0078 38.0553 30.8554 38.0408 31.7088C38.0235 32.6042 37.8141 33.4854 37.4269 34.2929C38.1366 34.4714 38.8149 34.7573 39.4383 35.1406C39.932 34.0772 40.1977 32.9222 40.2181 31.7499C40.2374 30.6073 40.029 29.4723 39.6051 28.411C39.1813 27.3498 38.5503 26.3835 37.7492 25.5686C36.948 24.7537 35.9926 24.1064 34.9387 23.6646C33.8849 23.2227 32.7535 22.995 31.6108 22.9949H31.589C31.3798 22.9978 31.1755 22.9319 31.0076 22.8071C30.8398 22.6823 30.7176 22.5057 30.6602 22.3046C30.0201 20.1072 28.6843 18.1768 26.8536 16.8032C25.0228 15.4297 22.7958 14.6871 20.5071 14.6871C18.2183 14.6871 15.9914 15.4297 14.1606 16.8032C12.3298 18.1768 10.9941 20.1072 10.354 22.3046C10.2945 22.504 10.1714 22.6785 10.0035 22.8014C9.83556 22.9243 9.63203 22.9888 9.42397 22.9852H9.4046C8.26119 22.9856 7.12933 23.2138 6.07508 23.6565C5.02082 24.0991 4.06529 24.7473 3.26426 25.5632C2.46322 26.3791 1.83273 27.3464 1.40958 28.4086C0.986424 29.4709 0.77909 30.6067 0.799674 31.7499C0.877174 36.4145 4.79577 40.2108 9.52932 40.2108H12.9974C13.1183 39.4505 13.3603 38.7146 13.7143 38.0311H9.52932C5.97522 38.0311 3.03628 35.1963 2.97815 31.7136C2.96369 30.8603 3.11924 30.0126 3.43575 29.22C3.75226 28.4274 4.22338 27.7058 4.82166 27.0971C5.41993 26.4885 6.13339 26.005 6.92043 25.6749C7.70747 25.3448 8.55235 25.1747 9.40581 25.1745H9.4276C9.64152 25.1742 9.85487 25.1527 10.0646 25.1104C10.8356 25.9311 11.27 27.0117 11.2815 28.1377L13.7434 28.0675C13.7217 26.4672 13.1408 24.925 12.1014 23.7081C12.2515 23.4658 12.368 23.2043 12.4477 22.9307C12.9597 21.1874 14.0209 19.656 15.4734 18.5644C16.9258 17.4728 18.692 16.8793 20.5089 16.8724Z" fill="url(#paint3_linear_737_299)"/>
<path d="M35.8939 36.1493C35.3995 36.5149 34.9965 36.9899 34.7162 37.5371C34.436 38.0844 34.2862 38.6891 34.2785 39.3038L32.0988 39.2421C32.1103 38.393 32.2994 37.5556 32.6539 36.784C33.0085 36.0123 33.5206 35.3234 34.1574 34.7616C33.6899 33.445 32.8171 32.3106 31.6643 31.5213C30.5115 30.732 29.1381 30.3286 27.7416 30.369C26.3451 30.4093 24.9973 30.8914 23.8921 31.746C22.7868 32.6005 21.9809 33.7835 21.5903 35.1249C21.5029 35.4219 21.3211 35.6823 21.0725 35.8667C20.8238 36.0511 20.5218 36.1495 20.2122 36.1469H20.2001C19.5048 36.1468 18.8163 36.2852 18.1751 36.5541C17.5338 36.823 16.9525 37.217 16.4651 37.713C15.9778 38.209 15.5942 38.7972 15.3366 39.4431C15.0791 40.089 14.9529 40.7798 14.9652 41.4751C15.0125 44.3462 17.415 46.6215 20.2861 46.6215H35.5742C38.4453 46.6215 40.8478 44.3462 40.8963 41.4751C40.9213 40.1104 40.4123 38.79 39.4779 37.7951C38.5434 36.8003 37.2574 36.2097 35.8939 36.1493Z" fill="url(#paint4_linear_737_299)"/>
<defs>
<linearGradient id="paint0_linear_737_299" x1="13.3607" y1="1.16694" x2="22.7633" y2="2.25559" gradientUnits="userSpaceOnUse">
<stop stop-color="#97BC5D"/>
<stop offset="1" stop-color="#C0D997"/>
</linearGradient>
<linearGradient id="paint1_linear_737_299" x1="23.1003" y1="1.16579" x2="32.5029" y2="2.25433" gradientUnits="userSpaceOnUse">
<stop stop-color="#97BC5D"/>
<stop offset="1" stop-color="#C0D997"/>
</linearGradient>
<linearGradient id="paint2_linear_737_299" x1="33.1329" y1="8.99922" x2="40.1418" y2="9.77441" gradientUnits="userSpaceOnUse">
<stop stop-color="#97BC5D"/>
<stop offset="1" stop-color="#C0D997"/>
</linearGradient>
<linearGradient id="paint3_linear_737_299" x1="0.798279" y1="16.176" x2="42.8368" y2="26.2256" gradientUnits="userSpaceOnUse">
<stop stop-color="#97BC5D"/>
<stop offset="1" stop-color="#C0D997"/>
</linearGradient>
<linearGradient id="paint4_linear_737_299" x1="14.9644" y1="31.3144" x2="42.5193" y2="38.1185" gradientUnits="userSpaceOnUse">
<stop stop-color="#97BC5D"/>
<stop offset="1" stop-color="#C0D997"/>
</linearGradient>
</defs>
</svg>
