<svg width="50" height="50" viewBox="0 0 50 50" fill="none" xmlns="http://www.w3.org/2000/svg">
<path d="M39.9999 0H10.0001C4.47705 0 0 4.47705 0 10.0001V39.9999C0 45.523 4.47705 50 10.0001 50H39.9999C45.5226 50 50 45.523 50 39.9999V10.0001C50 4.47705 45.523 0 39.9999 0ZM45.0001 37.5C45.0001 41.6424 41.6424 45.0001 37.5004 45.0001H12.5C8.35764 45.0001 4.99985 41.6424 4.99985 37.5V12.5C4.99985 8.35764 8.35764 4.99985 12.5 4.99985H37.5C41.642 4.99985 44.9998 8.35764 44.9998 12.5L45.0001 37.5ZM30.0002 10.0001L14.9999 27.4999H25.3573L20.0001 39.9999L35.0001 22.4997H24.6427L30.0002 10.0001Z" fill="url(#paint0_linear_737_362)"/>
<defs>
<linearGradient id="paint0_linear_737_362" x1="2.23514e-07" y1="2.91667" x2="55.0483" y2="11.437" gradientUnits="userSpaceOnUse">
<stop stop-color="#97BC5D"/>
<stop offset="1" stop-color="#C0D997"/>
</linearGradient>
</defs>
</svg>
