<svg width="52" height="52" viewBox="0 0 52 52" fill="none" xmlns="http://www.w3.org/2000/svg">
<path d="M31.9566 13.6205C32.0299 13.4287 32.0554 13.2219 32.0309 13.018C32.0064 12.8141 31.9327 12.6192 31.8162 12.4501C31.6996 12.281 31.5437 12.1427 31.3619 12.0473C31.18 11.9519 30.9777 11.9021 30.7723 11.9022H22.538C22.2476 11.9025 21.9661 12.0022 21.7405 12.1849C21.5148 12.3676 21.3586 12.6222 21.298 12.9061L17.7414 29.6509C17.7022 29.8352 17.7045 30.026 17.7483 30.2092C17.7921 30.3925 17.8762 30.5637 17.9945 30.7104C18.1129 30.857 18.2624 30.9754 18.4323 31.0569C18.6022 31.1384 18.7882 31.181 18.9766 31.1816H24.3532C24.54 31.1816 24.7245 31.2229 24.8934 31.3025C25.0624 31.3821 25.2117 31.4981 25.3307 31.6422C25.4496 31.7862 25.5353 31.9548 25.5815 32.1358C25.6277 32.3168 25.6333 32.5057 25.598 32.6892L24.266 39.5915C24.0238 40.8521 25.73 41.4854 26.3682 40.3726L34.8399 25.6112C34.9505 25.4185 35.0084 25.2 35.008 24.9778C35.0075 24.7555 34.9487 24.5373 34.8373 24.345C34.7259 24.1527 34.566 23.993 34.3734 23.882C34.1809 23.771 33.9626 23.7125 33.7403 23.7125H29.9598C29.7544 23.7126 29.5521 23.6627 29.3703 23.5673C29.1884 23.4719 29.0325 23.3337 28.9158 23.1646C28.7992 22.9956 28.7254 22.8007 28.7007 22.5969C28.6761 22.393 28.7013 22.1861 28.7743 21.9942L31.9566 13.6205Z" fill="url(#paint0_linear_737_319)"/>
<path d="M43.9401 43.9436C47.3713 40.4379 49.7198 36.0178 50.7044 31.2122C51.6891 26.4067 51.2682 21.4191 49.4922 16.8465C44.3942 3.74414 29.5856 -2.76829 16.4821 2.33097L17.2728 4.36292C29.2611 -0.300397 42.7982 5.65378 47.4615 17.6372C49.0857 21.8203 49.4699 26.383 48.5678 30.7788C47.6658 35.1746 45.5159 39.2173 42.3755 42.4227L40.8255 40.9127C40.6624 40.7535 40.4557 40.6463 40.2316 40.6047C40.0075 40.5631 39.7761 40.5889 39.5667 40.6789C39.3573 40.7689 39.1793 40.919 39.0552 41.1102C38.9312 41.3014 38.8667 41.5251 38.8699 41.753L38.928 45.8569C38.9325 46.1617 39.0576 46.4523 39.276 46.665C39.4943 46.8777 39.7881 46.9951 40.0929 46.9916L44.1968 46.9431C44.4246 46.9403 44.6464 46.87 44.8343 46.7411C45.0221 46.6121 45.1675 46.4304 45.252 46.2188C45.3365 46.0073 45.3564 45.7754 45.3091 45.5526C45.2618 45.3297 45.1495 45.1259 44.9863 44.9669L43.9401 43.9436Z" fill="url(#paint1_linear_737_319)"/>
<path d="M17.0209 47.1913C13.5666 45.675 10.5321 43.3428 8.17806 40.3949C5.824 37.4471 4.22079 33.9719 3.50616 30.2677C2.79154 26.5636 2.98687 22.7414 4.07537 19.1294C5.16388 15.5174 7.11301 12.2237 9.75531 9.53116L11.1285 10.8632C11.2917 11.0224 11.4984 11.1295 11.7225 11.1711C11.9465 11.2127 12.1779 11.1869 12.3874 11.0969C12.5968 11.0069 12.7748 10.8568 12.8988 10.6656C13.0228 10.4744 13.0874 10.2507 13.0842 10.0228L13.0261 5.91894C13.0242 5.76792 12.9925 5.61875 12.9329 5.47997C12.8733 5.34119 12.787 5.21552 12.6788 5.11014C12.5706 5.00476 12.4427 4.92174 12.3024 4.86583C12.1621 4.80992 12.0121 4.78221 11.8611 4.78429L7.75726 4.83273C7.52762 4.83335 7.30341 4.90262 7.11343 5.03163C6.92345 5.16065 6.77638 5.34351 6.69112 5.55674C6.60585 5.76997 6.58629 6.00382 6.63493 6.22825C6.68357 6.45268 6.7982 6.65745 6.9641 6.81624L8.19078 8.01144C4.10442 12.1736 1.56888 17.6112 1.00719 23.4169C0.445502 29.2226 1.89164 35.0454 5.10432 39.9137C8.31701 44.7821 13.1019 48.4015 18.6608 50.1682C24.2196 51.9349 30.2162 51.742 35.65 49.6217L34.8605 47.5909C32.0082 48.7071 28.9628 49.2464 25.9007 49.1778C22.8385 49.1093 19.8204 48.4341 17.0209 47.1913Z" fill="url(#paint2_linear_737_319)"/>
<defs>
<linearGradient id="paint0_linear_737_319" x1="17.7136" y1="13.5965" x2="37.0461" y2="15.3782" gradientUnits="userSpaceOnUse">
<stop stop-color="#97BC5D"/>
<stop offset="1" stop-color="#C0D997"/>
</linearGradient>
<linearGradient id="paint1_linear_737_319" x1="16.4821" y1="3.30064" x2="55.1289" y2="7.7797" gradientUnits="userSpaceOnUse">
<stop stop-color="#97BC5D"/>
<stop offset="1" stop-color="#C0D997"/>
</linearGradient>
<linearGradient id="paint2_linear_737_319" x1="0.888672" y1="7.50144" x2="39.5606" y2="11.9682" gradientUnits="userSpaceOnUse">
<stop stop-color="#97BC5D"/>
<stop offset="1" stop-color="#C0D997"/>
</linearGradient>
</defs>
</svg>
