<svg width="1871" height="647" viewBox="0 0 1871 647" fill="none" xmlns="http://www.w3.org/2000/svg">
<path fill-rule="evenodd" clip-rule="evenodd" d="M1112.85 447.064C1236.29 455.334 1337.56 555.562 1446.99 613.288V613.288C1581.8 684.401 1754.34 638.823 1832.37 511.487C1910.41 384.151 1864.39 223.276 1729.58 152.163C1655.67 113.173 1570.42 109.262 1495.61 134.672C1439.19 153.84 1383.14 178.379 1323.61 181.213L811.303 205.609C661.915 212.723 527.125 85.2858 389.943 25.7154C368.661 16.474 345.836 9.48884 321.785 5.16867C170.604 -21.9864 28.2113 66.4337 3.74224 202.661C-20.7268 338.888 81.9935 471.335 233.174 498.49C282.768 507.398 331.417 503.869 375.266 490.294C468.011 461.584 560.066 410.027 656.935 416.517L1112.85 447.064Z" fill="#F7F8F3"/>
</svg>
