<svg width="2091" height="583" viewBox="0 0 2091 583" fill="none" xmlns="http://www.w3.org/2000/svg">
<path fill-rule="evenodd" clip-rule="evenodd" d="M603.475 508.995C559.229 511.524 517.408 528.453 477.172 547.03V547.03C319.372 619.886 122.97 575.948 38.4969 448.891C-45.9767 321.834 13.4659 159.773 171.266 86.9173C268.156 42.1831 379.6 41.4813 470.751 77.0163C559.145 111.476 648.894 159.268 743.609 153.78L1409.47 115.195C1483.81 110.888 1551.9 74.4828 1618.73 41.6451C1652.34 25.1287 1689.82 12.9258 1730.02 6.28541C1904.84 -22.5966 2064.85 64.6905 2087.41 201.247C2109.97 337.803 1986.54 471.917 1811.71 500.799C1753.58 510.402 1697.09 507.162 1646.74 493.536C1585.42 476.941 1523.39 456.412 1459.96 460.037L603.475 508.995Z" fill="#F7F8F3"/>
</svg>
