<svg width="1883" height="855" viewBox="0 0 1883 855" fill="none" xmlns="http://www.w3.org/2000/svg">
<path fill-rule="evenodd" clip-rule="evenodd" d="M556.6 539.394C508.748 531.655 459.958 537.903 411.787 543.307C363.089 548.77 310.813 544.885 258.418 530.187C80.5695 480.298 -31.3096 324.726 8.5289 182.706C48.3674 40.6862 224.838 -34.0005 402.686 15.8885C446.943 28.3032 487.115 47.2622 521.88 70.9283C579.722 110.304 638.496 152.207 706.908 166.897L1535.37 344.792C1572.05 352.666 1610.03 351.503 1647.46 353.863C1760.07 360.96 1857.54 443.796 1878.35 559.661C1902.82 695.888 1812.06 826.186 1675.63 850.691C1614.29 861.71 1554.15 849.461 1504.32 820.256C1404.36 761.671 1317.45 662.46 1203.08 643.959L556.6 539.394Z" fill="#F7F8F3"/>
</svg>
